<svg width="62" height="56" viewBox="0 0 62 56" fill="none" xmlns="http://www.w3.org/2000/svg">
<path d="M56.3333 13.3333H47.88L43 8H27V13.3333H40.6533L45.5333 18.6667H56.3333V50.6667H13.6666V26.6667H8.33331V50.6667C8.33331 53.6 10.7333 56 13.6666 56H56.3333C59.2666 56 61.6666 53.6 61.6666 50.6667V18.6667C61.6666 15.7333 59.2666 13.3333 56.3333 13.3333ZM21.6666 34.6667C21.6666 42.0267 27.64 48 35 48C42.36 48 48.3333 42.0267 48.3333 34.6667C48.3333 27.3067 42.36 21.3333 35 21.3333C27.64 21.3333 21.6666 27.3067 21.6666 34.6667ZM35 26.6667C39.4 26.6667 43 30.2667 43 34.6667C43 39.0667 39.4 42.6667 35 42.6667C30.6 42.6667 27 39.0667 27 34.6667C27 30.2667 30.6 26.6667 35 26.6667ZM13.6666 13.3333H21.6666V8H13.6666V0H8.33331V8H0.333313V13.3333H8.33331V21.3333H13.6666V13.3333Z" fill="#868686"/>
</svg>
