<svg width="49" height="48" viewBox="0 0 49 48" fill="none" xmlns="http://www.w3.org/2000/svg">
<path d="M47 24C47 36.4264 36.9264 46.5 24.5 46.5C12.0736 46.5 2 36.4264 2 24C2 11.5736 12.0736 1.5 24.5 1.5C36.9264 1.5 47 11.5736 47 24Z" fill="#CBCBCB" stroke="#F0F0F0" stroke-width="3"/>
<path d="M24.5 13.5C18.98 13.5 14.5 17.98 14.5 23.5C14.5 29.02 18.98 33.5 24.5 33.5C30.02 33.5 34.5 29.02 34.5 23.5C34.5 17.98 30.02 13.5 24.5 13.5ZM24.5 31.5C20.09 31.5 16.5 27.91 16.5 23.5C16.5 19.09 20.09 15.5 24.5 15.5C28.91 15.5 32.5 19.09 32.5 23.5C32.5 27.91 28.91 31.5 24.5 31.5ZM29.09 19.08L22.5 25.67L19.91 23.09L18.5 24.5L22.5 28.5L30.5 20.5L29.09 19.08Z" fill="white"/>
</svg>
