<svg width="48" height="48" viewBox="0 0 48 48" fill="none" xmlns="http://www.w3.org/2000/svg">
<path d="M46.5 24C46.5 36.4264 36.4264 46.5 24 46.5C11.5736 46.5 1.5 36.4264 1.5 24C1.5 11.5736 11.5736 1.5 24 1.5C36.4264 1.5 46.5 11.5736 46.5 24Z" fill="#FFB30D" stroke="#BF1501" stroke-width="3"/>
<path d="M24 13.5C18.48 13.5 14 17.98 14 23.5C14 29.02 18.48 33.5 24 33.5C29.52 33.5 34 29.02 34 23.5C34 17.98 29.52 13.5 24 13.5ZM24 31.5C19.59 31.5 16 27.91 16 23.5C16 19.09 19.59 15.5 24 15.5C28.41 15.5 32 19.09 32 23.5C32 27.91 28.41 31.5 24 31.5ZM28.59 19.08L22 25.67L19.41 23.09L18 24.5L22 28.5L30 20.5L28.59 19.08Z" fill="white"/>
</svg>
