<svg width="48" height="48" viewBox="0 0 48 48" fill="none" xmlns="http://www.w3.org/2000/svg">
<path d="M46.5 24C46.5 36.4264 36.4264 46.5 24 46.5C11.5736 46.5 1.5 36.4264 1.5 24C1.5 11.5736 11.5736 1.5 24 1.5C36.4264 1.5 46.5 11.5736 46.5 24Z" fill="#CBCBCB" stroke="#F0F0F0" stroke-width="3"/>
<path d="M27.75 15.5C27.75 14.39 28.64 13.5 29.75 13.5C30.86 13.5 31.75 14.39 31.75 15.5C31.75 16.61 30.86 17.5 29.75 17.5C28.64 17.5 27.75 16.61 27.75 15.5ZM31.75 33.5V27.5H34.25L31.71 19.87C31.43 19.05 30.67 18.5 29.81 18.5H29.69C28.83 18.5 28.06 19.05 27.79 19.87L26.93 22.45C28.01 23.05 28.75 24.18 28.75 25.5V33.5H31.75ZM24.25 23C25.08 23 25.75 22.33 25.75 21.5C25.75 20.67 25.08 20 24.25 20C23.42 20 22.75 20.67 22.75 21.5C22.75 22.33 23.42 23 24.25 23ZM17.25 17.5C18.36 17.5 19.25 16.61 19.25 15.5C19.25 14.39 18.36 13.5 17.25 13.5C16.14 13.5 15.25 14.39 15.25 15.5C15.25 16.61 16.14 17.5 17.25 17.5ZM19.25 33.5V26.5H20.75V20.5C20.75 19.4 19.85 18.5 18.75 18.5H15.75C14.65 18.5 13.75 19.4 13.75 20.5V26.5H15.25V33.5H19.25ZM25.75 33.5V29.5H26.75V25.5C26.75 24.68 26.07 24 25.25 24H23.25C22.43 24 21.75 24.68 21.75 25.5V29.5H22.75V33.5H25.75Z" fill="white"/>
</svg>
