<svg width="48" height="48" viewBox="0 0 48 48" fill="none" xmlns="http://www.w3.org/2000/svg">
<path d="M46.5 24C46.5 36.4264 36.4264 46.5 24 46.5C11.5736 46.5 1.5 36.4264 1.5 24C1.5 11.5736 11.5736 1.5 24 1.5C36.4264 1.5 46.5 11.5736 46.5 24Z" fill="#FFB30D" stroke="#BF1501" stroke-width="3"/>
<path d="M24 13.5C20.13 13.5 17 16.63 17 20.5C17 25.75 24 33.5 24 33.5C24 33.5 31 25.75 31 20.5C31 16.63 27.87 13.5 24 13.5ZM19 20.5C19 17.74 21.24 15.5 24 15.5C26.76 15.5 29 17.74 29 20.5C29 23.38 26.12 27.69 24 30.38C21.92 27.71 19 23.35 19 20.5Z" fill="white"/>
<path d="M24 23C25.3807 23 26.5 21.8807 26.5 20.5C26.5 19.1193 25.3807 18 24 18C22.6193 18 21.5 19.1193 21.5 20.5C21.5 21.8807 22.6193 23 24 23Z" fill="white"/>
</svg>
