<svg width="85" height="18" viewBox="0 0 85 18" fill="none" xmlns="http://www.w3.org/2000/svg">
<path d="M85 9L70 0.339746V17.6603L85 9ZM0 10.5H1.93182V7.5H0V10.5ZM5.79545 10.5H9.65909V7.5H5.79545V10.5ZM13.5227 10.5H17.3864V7.5H13.5227V10.5ZM21.25 10.5H25.1136V7.5H21.25V10.5ZM28.9773 10.5H32.8409V7.5H28.9773V10.5ZM36.7045 10.5H40.5682V7.5H36.7045V10.5ZM44.4318 10.5H48.2955V7.5H44.4318V10.5ZM52.1591 10.5H56.0227V7.5H52.1591V10.5ZM59.8864 10.5H63.75V7.5H59.8864V10.5ZM67.6136 10.5H71.4773V7.5H67.6136V10.5ZM75.3409 10.5H79.2046V7.5H75.3409V10.5Z" fill="#FFB30D"/>
</svg>
