<svg width="25" height="24" viewBox="0 0 25 24" fill="none" xmlns="http://www.w3.org/2000/svg">
<path d="M3.125 11.3658C4.85089 11.3658 6.25 9.95227 6.25 8.20862C6.25 6.46496 4.85089 5.05146 3.125 5.05146C1.39911 5.05146 0 6.46496 0 8.20862C0 9.95227 1.39911 11.3658 3.125 11.3658Z" fill="white"/>
<path d="M8.75 6.31432C10.4759 6.31432 11.875 4.90081 11.875 3.15716C11.875 1.41351 10.4759 0 8.75 0C7.02411 0 5.625 1.41351 5.625 3.15716C5.625 4.90081 7.02411 6.31432 8.75 6.31432Z" fill="white"/>
<path d="M16.25 6.31432C17.9759 6.31432 19.375 4.90081 19.375 3.15716C19.375 1.41351 17.9759 0 16.25 0C14.5241 0 13.125 1.41351 13.125 3.15716C13.125 4.90081 14.5241 6.31432 16.25 6.31432Z" fill="white"/>
<path d="M21.875 11.3658C23.6009 11.3658 25 9.95227 25 8.20862C25 6.46496 23.6009 5.05146 21.875 5.05146C20.1491 5.05146 18.75 6.46496 18.75 8.20862C18.75 9.95227 20.1491 11.3658 21.875 11.3658Z" fill="white"/>
<path d="M19.175 14.9776C18.0875 13.6894 17.175 12.5908 16.075 11.3026C15.5 10.6207 14.7625 9.93874 13.8875 9.63565C13.75 9.58514 13.6125 9.54725 13.475 9.52199C13.1625 9.47148 12.825 9.47148 12.5 9.47148C12.175 9.47148 11.8375 9.47148 11.5125 9.53462C11.375 9.55988 11.2375 9.59777 11.1 9.64828C10.225 9.95137 9.5 10.6333 8.9125 11.3153C7.825 12.6034 6.9125 13.7021 5.8125 14.9902C4.175 16.6445 2.1625 18.4757 2.5375 21.0393C2.9 22.3274 3.8125 23.6029 5.45 23.9692C6.3625 24.1586 9.275 23.4135 12.375 23.4135H12.6C15.7 23.4135 18.6125 24.146 19.525 23.9692C21.1625 23.6029 22.075 22.3148 22.4375 21.0393C22.825 18.4631 20.8125 16.6319 19.175 14.9776Z" fill="white"/>
</svg>
