<?xml version="1.0" encoding="utf-8"?>
<svg viewBox="0 0 50 50" width="48px" height="48px" preserveAspectRatio="none" xmlns="http://www.w3.org/2000/svg">
  <defs/>
  <path d="M 47.5 25 C 47.5 37.427 37.426 47.5 25 47.5 C 12.573 47.5 2.5 37.427 2.5 25 C 2.5 12.574 12.573 2.5 25 2.5 C 37.426 2.5 47.5 12.574 47.5 25 Z" fill="#CBCBCB" stroke="#F0F0F0" stroke-width="3" style=""/>
  <path d="M 19.561 24.5 C 20.562 24.5 21.374 23.384 21.374 22.007 C 21.374 20.631 20.562 19.515 19.561 19.515 C 18.56 19.515 17.748 20.631 17.748 22.007 C 17.748 23.384 18.56 24.5 19.561 24.5 Z" fill="white" style=""/>
  <path d="M 22.824 20.512 C 23.825 20.512 24.637 19.396 24.637 18.019 C 24.637 16.642 23.825 15.527 22.824 15.527 C 21.823 15.527 21.011 16.642 21.011 18.019 C 21.011 19.396 21.823 20.512 22.824 20.512 Z" fill="white" style=""/>
  <path d="M 27.175 20.512 C 28.177 20.512 28.988 19.396 28.988 18.019 C 28.988 16.642 28.177 15.527 27.175 15.527 C 26.174 15.527 25.362 16.642 25.362 18.019 C 25.362 19.396 26.174 20.512 27.175 20.512 Z" fill="white" style=""/>
  <path d="M 30.439 24.5 C 31.44 24.5 32.252 23.384 32.252 22.007 C 32.252 20.631 31.44 19.515 30.439 19.515 C 29.437 19.515 28.626 20.631 28.626 22.007 C 28.626 23.384 29.437 24.5 30.439 24.5 Z" fill="white" style=""/>
  <path d="M 28.872 27.351 C 28.241 26.334 27.712 25.467 27.074 24.45 C 26.74 23.911 26.312 23.373 25.805 23.134 C 25.725 23.094 25.645 23.064 25.565 23.044 C 25.384 23.004 25.188 23.004 25 23.004 C 24.811 23.004 24.615 23.004 24.427 23.054 C 24.347 23.074 24.267 23.104 24.187 23.144 C 23.68 23.383 23.259 23.921 22.918 24.46 C 22.288 25.477 21.758 26.344 21.12 27.361 C 20.17 28.667 19.002 30.113 19.22 32.137 C 19.43 33.154 19.96 34.161 20.91 34.45 C 21.439 34.6 23.129 34.011 24.927 34.011 L 25.058 34.011 C 26.856 34.011 28.546 34.59 29.075 34.45 C 30.025 34.161 30.555 33.144 30.765 32.137 C 30.99 30.103 29.822 28.657 28.872 27.351 Z" fill="white" style=""/>
</svg>