<?xml version="1.0" encoding="utf-8"?>
<svg viewBox="0 0 48 48" width="48px" height="48px" xmlns="http://www.w3.org/2000/svg">
  <defs/>
  <path d="M 46.5 24 C 46.5 36.426 36.426 46.5 24 46.5 C 11.573 46.5 1.5 36.426 1.5 24 C 1.5 11.574 11.573 1.5 24 1.5 C 36.426 1.5 46.5 11.574 46.5 24 Z" stroke="#F0F0F0" stroke-width="3" style="" fill="#FFB30D"/>
  <path d="M 16.5 23.498 C 17.881 23.498 19 22.379 19 20.998 C 19 19.618 17.881 18.498 16.5 18.498 C 15.12 18.498 14 19.618 14 20.998 C 14 22.379 15.12 23.498 16.5 23.498 Z" fill="white"/>
  <path d="M 21 19.498 C 22.381 19.498 23.5 18.379 23.5 16.998 C 23.5 15.618 22.381 14.498 21 14.498 C 19.62 14.498 18.5 15.618 18.5 16.998 C 18.5 18.379 19.62 19.498 21 19.498 Z" fill="white"/>
  <path d="M 27 19.498 C 28.381 19.498 29.5 18.379 29.5 16.998 C 29.5 15.618 28.381 14.498 27 14.498 C 25.62 14.498 24.5 15.618 24.5 16.998 C 24.5 18.379 25.62 19.498 27 19.498 Z" fill="white"/>
  <path d="M 31.5 23.498 C 32.881 23.498 34 22.379 34 20.998 C 34 19.618 32.881 18.498 31.5 18.498 C 30.12 18.498 29 19.618 29 20.998 C 29 22.379 30.12 23.498 31.5 23.498 Z" style="" fill="white"/>
  <path d="M 29.34 26.358 C 28.47 25.338 27.74 24.468 26.86 23.448 C 26.4 22.908 25.81 22.368 25.11 22.128 C 25 22.088 24.89 22.058 24.78 22.038 C 24.53 21.998 24.26 21.998 24 21.998 C 23.74 21.998 23.47 21.998 23.21 22.048 C 23.1 22.068 22.99 22.098 22.88 22.138 C 22.18 22.378 21.6 22.918 21.13 23.458 C 20.26 24.478 19.53 25.348 18.65 26.368 C 17.34 27.678 15.73 29.128 16.03 31.158 C 16.32 32.178 17.05 33.188 18.36 33.478 C 19.09 33.628 21.42 33.038 23.9 33.038 L 24.08 33.038 C 26.56 33.038 28.89 33.618 29.62 33.478 C 30.93 33.188 31.66 32.168 31.95 31.158 C 32.26 29.118 30.65 27.668 29.34 26.358 Z" fill="white"/>
</svg>