<svg width="25" height="24" viewBox="0 0 25 24" fill="none" xmlns="http://www.w3.org/2000/svg">
<path fill-rule="evenodd" clip-rule="evenodd" d="M7.26559 23.9872C7.16863 23.9798 7.07167 23.9741 6.97519 23.9647C6.43278 23.9092 5.93501 23.716 5.4934 23.368C4.73162 22.7661 4.24441 21.9658 4.05049 20.9593C3.97976 20.5828 3.95602 20.1975 3.97993 19.8141C4.00591 19.3647 4.08629 18.921 4.21897 18.4946C4.4297 17.81 4.74698 17.1887 5.14875 16.6161C5.45115 16.1866 5.79364 15.7924 6.17069 15.44C6.52152 15.1064 6.84751 14.7428 7.14559 14.3529C7.52384 13.8636 7.86561 13.3449 8.20401 12.8225C8.50258 12.3609 8.79635 11.8961 9.11315 11.4502C9.34858 11.1112 9.60605 10.7911 9.88357 10.4923C10.234 10.1223 10.6209 9.80929 11.0769 9.60569C11.4159 9.45364 11.7779 9.37164 12.1444 9.36388C12.561 9.35184 12.9773 9.39988 13.3824 9.50676C13.994 9.67001 14.555 10.0072 15.0082 10.484C15.3259 10.8137 15.5947 11.1874 15.8443 11.5779C16.1098 11.9924 16.3531 12.4221 16.6042 12.8466C16.8874 13.3244 17.1802 13.795 17.5066 14.2399C17.8314 14.6827 18.1915 15.0933 18.5828 15.4667C19.0568 15.9157 19.4778 16.4271 19.8361 16.9893C20.1435 17.47 20.3887 17.9947 20.5647 18.5485C20.7019 18.98 20.7834 19.4303 20.8067 19.8863C20.8403 20.5835 20.7299 21.2503 20.4395 21.8773C20.1707 22.4583 19.7818 22.9257 19.2942 23.2957C18.9351 23.5684 18.5477 23.7757 18.1215 23.8909C17.9706 23.9325 17.817 23.9617 17.6621 23.9783C17.6405 23.9804 17.6199 23.9845 17.5988 23.9887C17.5786 24.0008 17.5565 23.9913 17.5349 23.994C17.5172 23.9971 17.4989 23.9887 17.4821 24.0002H17.0847C17.0688 23.9882 17.0511 23.9966 17.0343 23.9945H16.9503C16.6114 23.9825 16.2826 23.9055 15.9542 23.8223C15.3989 23.681 14.8541 23.4952 14.3011 23.3418C13.8546 23.2148 13.4008 23.1207 12.9427 23.0602C12.6251 23.0236 12.3055 23.0127 11.9865 23.0278C11.7321 23.0372 11.4786 23.0801 11.2281 23.1309C10.7337 23.2324 10.2493 23.3769 9.76452 23.5213C9.25188 23.6752 8.73922 23.8275 8.21409 23.9212C8.00049 23.9589 7.78688 23.9913 7.56944 23.9893C7.5248 23.9882 7.48064 23.9955 7.43552 23.9945C7.37792 23.9908 7.32223 24.0013 7.26559 23.9872ZM17.0621 0.0107121C17.7764 0.104401 18.3226 0.500616 18.7397 1.12503C19.0254 1.55317 19.2054 2.03366 19.3167 2.54711C19.4101 2.98787 19.4497 3.44018 19.4343 3.89225C19.4108 4.71781 19.2276 5.52863 18.8967 6.27163C18.6718 6.791 18.3654 7.26357 17.9914 7.66806C17.654 8.02816 17.2724 8.31603 16.8269 8.49556C16.5139 8.62117 16.1923 8.68398 15.8592 8.662C15.2822 8.62588 14.7921 8.3757 14.3808 7.93918C14.0294 7.56652 13.7904 7.11535 13.6248 6.61655C13.5108 6.26865 13.4351 5.90725 13.3992 5.53991C13.3728 5.28873 13.3632 5.03578 13.3704 4.78308C13.3872 4.18745 13.4856 3.60752 13.6632 3.04434C13.8461 2.44716 14.1237 1.88964 14.4835 1.3972C14.7907 0.981621 15.1493 0.629894 15.5794 0.370288C15.8921 0.178403 16.2367 0.0563443 16.5931 0.0112355C16.6042 0.00443131 16.6162 0.00757179 16.6272 0.00652499L16.6613 0.00652499C16.6781 0.00443139 16.6954 0.0128057 16.7103 0.000244141L16.9445 0.000244141C16.9594 0.0133291 16.9767 0.00443139 16.993 0.00652499L17.0275 0.00652499C17.0386 0.00652499 17.0506 0.00390795 17.0621 0.0107121ZM0.62418 9.21157C0.63522 8.97394 0.674581 8.74051 0.731702 8.51073C0.843064 8.06427 1.02451 7.65759 1.30771 7.30953C1.61214 6.92566 2.02593 6.66431 2.48278 6.56735C2.86294 6.4857 3.23831 6.52024 3.60696 6.64481C4.03129 6.78718 4.40618 7.03004 4.73978 7.34617C5.25723 7.83555 5.62876 8.43798 5.88557 9.12678C6.08801 9.6614 6.19645 10.2328 6.20525 10.8111C6.21316 11.1677 6.17666 11.5239 6.09677 11.8699C5.98781 12.3331 5.80444 12.7545 5.5126 13.1156C5.19092 13.5236 4.74639 13.7933 4.25881 13.8761C3.89113 13.941 3.52968 13.897 3.17639 13.7725C2.70118 13.6045 2.29317 13.3155 1.93413 12.9413C1.58806 12.5786 1.30223 12.1532 1.08931 11.6841C0.875843 11.2258 0.730662 10.7334 0.65922 10.2254C0.64722 10.1348 0.63714 10.0443 0.62562 9.95427C0.61698 9.91292 0.620819 9.87053 0.611219 9.8297C0.606899 9.81243 0.609299 9.79621 0.608819 9.77841C0.605939 9.75695 0.615059 9.7334 0.602579 9.71194V9.3801C0.621779 9.34975 0.612179 9.31625 0.614099 9.2838C0.616019 9.25972 0.610259 9.23355 0.62418 9.21157ZM5.64172 3.89539C5.64412 3.23695 5.73004 2.64394 5.93213 2.07239C6.08429 1.64058 6.29357 1.24594 6.58494 0.90625C6.89839 0.538824 7.27087 0.276076 7.72016 0.15203C8.16945 0.0274611 8.61106 0.0630526 9.04499 0.234204C9.42756 0.38599 9.76116 0.624138 10.0578 0.925093C10.5306 1.40453 10.869 1.98393 11.1105 2.63347C11.2641 3.04591 11.3697 3.47301 11.4297 3.91319C11.4638 4.16232 11.4834 4.41408 11.4882 4.66688C11.4945 4.98527 11.4739 5.30361 11.4268 5.6179C11.3265 6.27529 11.122 6.88767 10.7572 7.42887C10.5359 7.76486 10.2488 8.0429 9.91669 8.24275C9.54719 8.46389 9.12614 8.56147 8.7061 8.5233C8.31922 8.49137 7.96209 8.35319 7.62944 8.13807C7.19551 7.85806 6.84414 7.48016 6.55134 7.03527C6.20998 6.50939 5.96037 5.91944 5.815 5.29496C5.73265 4.95207 5.67931 4.60167 5.65564 4.24816C5.64507 4.13094 5.64043 4.01317 5.64172 3.89539ZM24.6021 9.59784V9.67425C24.5757 10.3091 24.4197 10.9063 24.1687 11.4758C23.9731 11.9209 23.7157 12.3303 23.4054 12.6896C23.0046 13.1528 22.5395 13.5144 21.9861 13.7311C21.6584 13.864 21.3094 13.9228 20.9603 13.9039C20.4535 13.8801 19.9715 13.6583 19.6023 13.2789C19.2865 12.9586 19.0786 12.565 18.9471 12.1222C18.8312 11.7271 18.7792 11.313 18.7935 10.8985C18.8194 9.98149 19.0849 9.14823 19.5457 8.38564C19.7007 8.12806 19.8796 7.88848 20.0794 7.67068C20.4908 7.22369 20.9612 6.88034 21.5185 6.68511C21.8316 6.57261 22.1617 6.5278 22.4905 6.55322C22.985 6.58859 23.4522 6.81282 23.8101 7.18653C24.1442 7.53041 24.3554 7.95488 24.4826 8.43222C24.5531 8.6955 24.5944 8.96505 24.6026 9.23983V9.31677C24.6001 9.41044 24.5996 9.50417 24.6021 9.59784Z" fill="#BF1501"/>
</svg>
