<svg width="39" height="35" viewBox="0 0 39 35" fill="none" xmlns="http://www.w3.org/2000/svg">
<path fill-rule="evenodd" clip-rule="evenodd" d="M31.6772 31.5861C31.6086 31.7036 31.5421 31.822 31.471 31.9376C31.0681 32.5863 30.5103 33.0996 29.7818 33.4532C28.5231 34.0621 27.1688 34.2122 25.72 33.8753C25.1791 33.747 24.6553 33.5547 24.1628 33.3036C23.5843 33.0119 23.0464 32.6553 22.5631 32.2429C21.7858 31.5838 21.157 30.8275 20.6439 29.9932C20.2596 29.366 19.9464 28.709 19.7095 28.0327C19.4814 27.4001 19.1987 26.7814 18.8642 26.1825C18.4468 25.4257 17.9685 24.6978 17.4834 23.972C17.0543 23.3312 16.6181 22.6946 16.2209 22.0399C15.9156 21.549 15.6488 21.0414 15.4223 20.5209C15.1458 19.8678 14.967 19.2018 14.9747 18.5122C14.9796 17.9991 15.0911 17.4975 15.3035 17.0331C15.5407 16.5033 15.8571 16.0087 16.2445 15.5619C16.8319 14.8885 17.6186 14.3789 18.5244 14.085C19.1534 13.8764 19.8109 13.7545 20.4789 13.6663C21.1883 13.5722 21.9044 13.5145 22.6182 13.4442C23.4222 13.3643 24.2223 13.2681 25.0089 13.115C25.7918 12.9627 26.5535 12.7474 27.285 12.4717C28.1667 12.1357 29.0987 11.9022 30.0598 11.7767C30.8823 11.668 31.7251 11.6628 32.5643 11.7612C33.2183 11.8378 33.8632 11.9952 34.4804 12.2288C35.4227 12.5886 36.2374 13.1115 36.8902 13.8375C37.4952 14.5097 37.877 15.2671 38.0701 16.0925C38.2126 16.7003 38.2514 17.3059 38.1447 17.9072C38.108 18.1205 38.0534 18.3301 37.9812 18.534C37.9708 18.5624 37.9638 18.5907 37.9566 18.6196C37.9602 18.6518 37.9344 18.6741 37.9247 18.7027C37.9181 18.7268 37.8959 18.7449 37.9009 18.7726L37.6595 19.2714C37.6339 19.2843 37.6342 19.3114 37.6212 19.3313L37.5702 19.4367C37.3484 19.8551 37.0469 20.2233 36.7374 20.5874C36.2132 21.2029 35.6365 21.7795 35.0978 22.385C34.6585 22.8721 34.2584 23.3874 33.9002 23.9274C33.6588 24.3048 33.4503 24.6996 33.2764 25.1086C33.1343 25.4333 33.0371 25.7761 32.952 26.1198C32.7859 26.7988 32.6827 27.4899 32.5792 28.1816C32.4713 28.9137 32.3613 29.6448 32.1662 30.3578C32.0862 30.6476 31.9994 30.9344 31.8645 31.206C31.836 31.2615 31.8189 31.3211 31.7901 31.3771C31.7502 31.4473 31.7307 31.5241 31.6776 31.587M5.92253 5.46954C6.48033 4.62721 7.33611 4.17012 8.41523 4.00663C9.1549 3.89504 9.89963 3.94615 10.6463 4.10241C11.2859 4.23927 11.908 4.4504 12.4965 4.73031C13.5739 5.2358 14.5348 5.93315 15.3163 6.77671C15.8665 7.35843 16.3053 8.01533 16.613 8.71785C16.8842 9.34893 17.033 9.99378 16.9998 10.6563C16.9758 11.1215 16.8635 11.5613 16.632 11.9666C16.2338 12.6699 15.6052 13.1407 14.7781 13.4053C14.0718 13.6314 13.33 13.6712 12.5698 13.5915C12.0405 13.534 11.5166 13.4206 11.009 13.2539C10.6608 13.1422 10.3205 13.0085 9.99069 12.8538C9.21325 12.4893 8.50615 12.0315 7.8693 11.4839C7.19071 10.9101 6.62214 10.2402 6.18951 9.50485C5.82658 8.87974 5.57929 8.22699 5.49727 7.53759C5.4335 7.03453 5.48145 6.53168 5.63833 6.05837C5.63604 6.04059 5.64748 6.02734 5.6528 6.01288L5.67351 5.97011C5.68094 5.94782 5.70252 5.93097 5.69494 5.90505L5.83724 5.61109C5.86359 5.59996 5.86232 5.57314 5.875 5.55387L5.896 5.5105C5.90271 5.49664 5.90654 5.48007 5.92253 5.46954ZM8.10364 31.4024C7.79612 31.2516 7.51134 31.0676 7.2422 30.8635C6.71946 30.4663 6.2919 30.0042 6.00367 29.4481C5.68098 28.8448 5.58675 28.1748 5.73607 27.5456C5.85904 27.0214 6.13276 26.5703 6.52143 26.1795C6.96747 25.7291 7.51636 25.3986 8.13707 25.1622C9.09856 24.795 10.1209 24.676 11.1878 24.7509C12.0177 24.805 12.8392 24.9983 13.6093 25.3207C14.0857 25.5164 14.5346 25.7675 14.9435 26.0673C15.4899 26.471 15.9357 26.9441 16.2359 27.5185C16.5801 28.1574 16.6666 28.8707 16.4799 29.5304C16.3424 30.0292 16.0647 30.4574 15.6853 30.829C15.1745 31.3285 14.5446 31.6739 13.8316 31.9088C13.1417 32.1339 12.4055 32.2474 11.6558 32.2442C10.9202 32.2479 10.1808 32.1462 9.46559 31.9429C9.33856 31.9058 9.2127 31.8662 9.08666 31.8288C9.02673 31.8158 8.973 31.7865 8.91318 31.7751C8.88772 31.7705 8.86772 31.7582 8.84389 31.7485C8.81377 31.7397 8.78816 31.7147 8.7522 31.718L8.31339 31.5267C8.28491 31.4851 8.23478 31.4778 8.19304 31.4567C8.16236 31.4404 8.12426 31.4326 8.10364 31.4024ZM4.12176 22.0409C3.25251 21.6583 2.52052 21.2086 1.88748 20.6255C1.4089 20.1856 1.01417 19.6955 0.741982 19.134C0.44652 18.5288 0.325352 17.9099 0.434256 17.2745C0.542467 16.6389 0.857806 16.1052 1.34774 15.6593C1.78087 15.2668 2.29845 14.9854 2.87664 14.7866C3.79786 14.4697 4.76963 14.379 5.77524 14.4505C6.41396 14.4955 7.04289 14.6092 7.66142 14.7877C8.01158 14.8885 8.35645 15.009 8.69367 15.1487C9.11849 15.3244 9.52696 15.5338 9.91395 15.7741C10.7223 16.279 11.4079 16.8886 11.9019 17.6584C12.2119 18.1298 12.4051 18.6504 12.4676 19.1824C12.5356 19.7736 12.4088 20.3582 12.1032 20.8634C11.8259 21.3305 11.4263 21.699 10.9397 21.9924C10.3058 22.3755 9.59264 22.5986 8.82645 22.7096C7.92366 22.8348 6.9919 22.8079 6.07779 22.6303C5.57433 22.536 5.07856 22.4009 4.59671 22.2268C4.43528 22.1725 4.27672 22.1105 4.12176 22.0409ZM23.1808 1.5344L23.2819 1.57845C24.1054 1.9776 24.8003 2.51766 25.4009 3.16101C25.8706 3.66295 26.2556 4.22206 26.5423 4.81854C26.9113 5.58857 27.107 6.38078 27.0574 7.20025C27.034 7.68801 26.8997 8.15988 26.6626 8.58711C26.3233 9.20941 25.7372 9.68643 25.0113 9.93096C24.3958 10.1427 23.7491 10.1766 23.0836 10.0864C22.4907 10.004 21.9116 9.83054 21.3721 9.57364C20.1752 9.01246 19.2346 8.19896 18.5061 7.18103C18.2597 6.83796 18.0515 6.47539 17.8849 6.099C17.5437 5.32507 17.3755 4.5368 17.4558 3.72488C17.4972 3.26716 17.6386 2.82698 17.8719 2.42902C18.2191 1.8289 18.7994 1.37186 19.511 1.13819C20.1687 0.917179 20.8583 0.896846 21.5668 1.01241C21.9578 1.07563 22.3394 1.17923 22.7077 1.3274L22.8094 1.37176C22.9318 1.42894 23.0554 1.48357 23.1808 1.5344Z" fill="#675BC8" fill-opacity="0.08"/>
</svg>
