<svg width="23" height="24" viewBox="0 0 23 24" fill="none" xmlns="http://www.w3.org/2000/svg">
<path opacity="0.45" fill-rule="evenodd" clip-rule="evenodd" d="M22.3851 11.4169C22.4033 11.3243 22.4228 11.2321 22.4393 11.1392C22.5298 10.6165 22.5005 10.0953 22.3348 9.58108C22.0479 8.69365 21.5361 8.00451 20.7886 7.52883C20.5085 7.35257 20.2099 7.21765 19.9009 7.12773C19.5393 7.02044 19.1687 6.96561 18.7988 6.96467C18.2054 6.96102 17.6358 7.07539 17.0836 7.28289C16.6692 7.4395 16.2728 7.64389 15.9008 7.89277C15.5502 8.12265 15.1821 8.3206 14.8 8.48477C14.3195 8.69468 13.8248 8.86194 13.3281 9.02499C12.8892 9.16862 12.4491 9.30684 12.0181 9.47209C11.6918 9.59268 11.375 9.73937 11.0701 9.91102C10.6908 10.1299 10.3476 10.3995 10.0736 10.7656C9.86945 11.0376 9.71493 11.3516 9.61798 11.6915C9.50522 12.077 9.44004 12.4797 9.42415 12.8892C9.40161 13.508 9.5291 14.1305 9.79363 14.6932C9.97551 15.0864 10.2043 15.4467 10.451 15.7941C10.7129 16.1632 10.9922 16.5162 11.2655 16.8749C11.5731 17.2792 11.8724 17.6903 12.1432 18.1253C12.4127 18.5581 12.6479 19.0145 12.8462 19.4892C13.0836 20.0631 13.3835 20.6059 13.739 21.105C14.0428 21.5328 14.3967 21.9153 14.7908 22.2417C15.0979 22.4962 15.4336 22.704 15.7883 22.8592C16.331 23.0947 16.8854 23.1868 17.453 23.0992C17.9788 23.0183 18.4445 22.7921 18.8579 22.4451C19.1624 22.1897 19.4222 21.8887 19.6188 21.5244C19.6891 21.3957 19.7503 21.2609 19.8018 21.1211C19.8088 21.1015 19.8172 21.0835 19.8257 21.065C19.8402 21.0497 19.8383 21.0263 19.8457 21.0069C19.8526 20.9913 19.8505 20.9718 19.8637 20.9595L19.9622 20.5884C19.9566 20.5701 19.9677 20.5559 19.9702 20.5396L19.991 20.4612C20.0654 20.1413 20.0861 19.8118 20.1017 19.4809C20.1276 18.921 20.1158 18.3579 20.1316 17.7968C20.1418 17.3427 20.1799 16.8914 20.2456 16.446C20.2953 16.1388 20.366 15.8372 20.4569 15.5438C20.5274 15.309 20.6242 15.085 20.7264 14.8659C20.9291 14.434 21.1633 14.0241 21.3977 13.6137C21.6463 13.1801 21.8937 12.7461 22.0979 12.2832C22.1806 12.0948 22.2592 11.9049 22.3114 11.7012C22.3217 11.6593 22.3384 11.6202 22.3488 11.5777C22.3601 11.5229 22.3828 11.4737 22.3856 11.4166M1.00669 13.5451C0.903744 14.2394 1.08155 14.8654 1.47171 15.4376C1.73934 15.8296 2.0745 16.1383 2.45274 16.3926C2.77796 16.6088 3.12566 16.7782 3.48678 16.8961C4.14513 17.1158 4.83139 17.1821 5.50064 17.0907C5.96689 17.0327 6.41632 16.885 6.82871 16.6542C7.19695 16.4446 7.51904 16.1725 7.77132 15.8092C7.94816 15.5538 8.0775 15.2719 8.14268 14.9544C8.25711 14.4052 8.18081 13.8744 7.93773 13.3625C7.73025 12.9254 7.43289 12.5701 7.07967 12.2695C6.83294 12.0613 6.56606 11.8848 6.28462 11.7437C6.09261 11.6456 5.89507 11.5625 5.69356 11.4953C5.21861 11.3366 4.73586 11.2587 4.24672 11.2597C3.72939 11.2556 3.21992 11.3517 2.74155 11.5434C2.33695 11.7086 1.97009 11.9404 1.65833 12.266C1.42917 12.5018 1.24729 12.7878 1.12331 13.1074C1.1152 13.1157 1.11471 13.1279 1.11115 13.1379L1.1027 13.1697C1.09688 13.1848 1.09922 13.2033 1.0856 13.2136L1.02756 13.4323C1.03421 13.45 1.0229 13.4635 1.02051 13.4794L1.01194 13.5116C1.00921 13.5219 1.00416 13.5324 1.00669 13.5451ZM12.3523 0.89106C12.1618 0.831811 11.9675 0.800228 11.7718 0.786301C11.3913 0.759587 11.0249 0.809949 10.6796 0.972481C10.3008 1.14435 9.99166 1.45417 9.80181 1.85233C9.64307 2.18338 9.57736 2.54395 9.58446 2.9246C9.59184 3.36245 9.69089 3.78356 9.85809 4.18757C10.1167 4.81394 10.5008 5.33716 10.9815 5.77855C11.3539 6.12406 11.7787 6.39256 12.2336 6.57006C12.5135 6.68184 12.8041 6.75203 13.0974 6.77871C13.4905 6.81257 13.8689 6.76471 14.2267 6.59794C14.6289 6.41704 14.9522 6.08093 15.1385 5.64995C15.2809 5.32566 15.3357 4.97532 15.3248 4.60901C15.3098 4.11615 15.1825 3.65064 14.9757 3.20587C14.7748 2.77658 14.5094 2.3852 14.1914 2.04909C13.8821 1.71564 13.5288 1.43596 13.145 1.22054C13.0764 1.18283 13.0073 1.14692 12.939 1.10981C12.9085 1.08964 12.874 1.08081 12.8441 1.0599C12.8315 1.05081 12.8181 1.0483 12.8042 1.04264C12.7879 1.03367 12.7671 1.03529 12.7532 1.01736L12.4909 0.920226C12.4622 0.929266 12.4381 0.910498 12.4119 0.902791C12.3924 0.897536 12.3732 0.884498 12.3523 0.89106ZM6.90712 4.01956C6.3861 3.82906 5.8961 3.7357 5.39427 3.75707C5.01527 3.77274 4.65148 3.85262 4.3108 4.02522C3.94271 4.21032 3.64274 4.48118 3.43336 4.86435C3.22356 5.24736 3.14226 5.67009 3.17001 6.12533C3.19518 6.52695 3.30074 6.90813 3.4651 7.27319C3.72688 7.85497 4.10097 8.34053 4.55453 8.75609C4.84246 9.02023 5.15386 9.24384 5.48691 9.42871C5.67538 9.53346 5.86949 9.62553 6.06811 9.70401C6.31822 9.80303 6.57493 9.87701 6.83501 9.92502C7.37947 10.0238 7.91416 10.0121 8.43232 9.82994C8.75272 9.72173 9.04362 9.53504 9.28389 9.28345C9.55024 9.0032 9.7317 8.63865 9.80561 8.23531C9.87625 7.86474 9.85553 7.49086 9.76794 7.11731C9.65414 6.63021 9.44253 6.19154 9.16345 5.78793C8.83238 5.31528 8.42795 4.90954 7.97039 4.59103C7.71978 4.41377 7.45605 4.26139 7.1825 4.13582C7.09247 4.09164 7.00053 4.05282 6.90712 4.01956ZM6.71583 23.3912L6.77623 23.4136C7.28458 23.5748 7.79526 23.6039 8.30757 23.5362C8.70779 23.484 9.09519 23.3634 9.45605 23.1789C9.92148 22.9403 10.3226 22.6119 10.631 22.1586C10.8172 21.8916 10.9502 21.583 11.0217 21.2514C11.1285 20.7713 11.0727 20.2564 10.8643 19.8007C10.6894 19.412 10.4298 19.1027 10.1124 18.8503C9.82883 18.6265 9.51443 18.4567 9.18325 18.3487C8.45204 18.1045 7.72766 18.1084 7.01072 18.3154C6.76871 18.3848 6.53503 18.4816 6.31335 18.6045C5.85812 18.8577 5.47017 19.1964 5.17776 19.6596C5.01126 19.9189 4.89403 20.2141 4.83264 20.5285C4.73807 21.0005 4.79953 21.5024 5.00622 21.9459C5.19523 22.3585 5.4784 22.6799 5.82416 22.9384C6.01476 23.0814 6.21758 23.1988 6.43275 23.2869L6.49356 23.3094C6.56822 23.3344 6.64243 23.3614 6.71583 23.3912Z" fill="#D4D4ED" fill-opacity="0.66"/>
</svg>
